<?xml version="1.0" standalone="no"?>
<!DOCTYPE svg PUBLIC "-//W3C//DTD SVG 20010904//EN" "http://www.w3.org/TR/2001/REC-SVG-20010904/DTD/svg10.dtd">
<svg xmlns="http://www.w3.org/2000/svg" version="1.0" width="1011.000000pt" height="945.000000pt" viewBox="0 0 1011.000000 945.000000" preserveAspectRatio="xMidYMid meet">
<metadata>
Created by potrace 1.16, written by Peter Selinger 2001-2019
<meta name="Producer" content="Online-Convert"/></metadata>
<g transform="translate(0.000000,945.000000) scale(0.100000,-0.100000)" fill="#000000" stroke="none">
<path d="M0 4725 l0 -4725 5055 0 5055 0 0 4725 0 4725 -5055 0 -5055 0 0 -4725z m4954 4469 c75 -38 119 -83 159 -163 28 -58 32 -75 32 -151 0 -87 -18 -155 -38 -143 -6 4 -8 0 -5 -8 3 -9 -2 -25 -11 -38 l-17 -22 0 23 c0 13 5 26 10 30 7 5 7 8 -2 8 -7 0 -16 -8 -19 -17 -11 -27 -65 -71 -127 -103 -51 -26 -70 -30 -136 -30 -67 0 -85 4 -138 31 l-61 32 -83 -48 c-321 -185 -640 -380 -646 -396 -2 -5 -10 -9 -19 -9 -12 0 -12 -2 1 -16 9 -8 20 -12 26 -9 5 3 10 4 10 1 0 -3 -15 -13 -32 -22 -18 -9 -35 -20 -38 -24 -3 -4 -25 -18 -50 -32 -25 -14 -126 -75 -226 -134 -99 -60 -239 -143 -311 -184 l-130 -75 -9 -390 c-4 -214 -11 -370 -14 -346 -4 35 -7 41 -16 30 -14 -17 -14 -23 -24 -1044 -4 -456 -11 -843 -15 -859 -4 -16 -16 -31 -26 -33 -11 -3 -19 -8 -19 -12 0 -11 -58 -71 -69 -71 -6 0 -11 -4 -11 -10 0 -5 -6 -9 -12 -7 -10 1 -15 -143 -21 -682 -4 -377 -4 -723 0 -770 l8 -85 55 -31 c246 -140 319 -177 305 -155 -3 6 -12 10 -20 10 -8 0 -16 4 -19 9 -3 4 6 6 21 3 21 -4 25 -2 20 12 -4 10 -1 16 8 16 8 0 15 7 15 16 0 10 6 14 14 11 16 -6 40 16 29 26 -3 4 2 7 13 7 19 0 -26 31 -190 130 l-87 52 2 532 c2 441 11 840 17 734 1 -14 8 -28 15 -30 15 -6 24 -282 26 -818 l2 -385 72 -41 c40 -23 209 -121 377 -219 168 -97 368 -214 445 -258 77 -45 142 -85 143 -89 2 -5 9 -8 15 -8 20 -1 187 -106 180 -113 -3 -4 1 -7 11 -7 10 0 34 -12 54 -27 50 -36 64 -51 27 -28 -23 14 -27 15 -17 3 10 -13 10 -17 0 -21 -7 -2 1 -4 17 -3 17 1 36 5 42 9 9 6 11 3 6 -9 -5 -13 -3 -15 8 -9 12 7 12 6 -1 -9 -16 -20 -16 -20 47 -59 49 -30 88 -63 91 -75 1 -7 -20 -36 -47 -64 -56 -58 -56 -59 14 -103 24 -16 41 -33 38 -39 -3 -6 -3 -8 2 -4 10 10 64 -22 76 -45 6 -10 15 -14 21 -11 7 5 8 2 3 -6 -6 -10 -4 -12 9 -7 9 4 15 3 12 -2 -3 -5 6 -12 19 -15 16 -4 23 -11 19 -18 -6 -9 -9 -9 -12 0 -2 7 -11 12 -20 12 -15 0 -15 -2 -2 -10 24 -15 4 -12 -34 7 -19 9 -32 21 -29 26 3 6 1 7 -6 3 -6 -4 -17 -3 -24 2 -7 6 -77 47 -157 92 -217 123 -220 124 -435 248 -110 63 -315 181 -455 262 -140 80 -378 217 -527 304 l-273 158 0 872 c0 751 2 875 15 892 13 17 14 17 15 2 0 -10 -4 -18 -10 -18 -5 0 -10 -8 -9 -17 0 -13 2 -14 6 -4 4 11 7 11 13 0 6 -8 11 -1 15 22 3 19 5 511 3 1095 -3 911 -5 1063 -18 1078 -23 29 -24 38 -27 306 l-3 255 167 99 c378 224 733 424 738 415 4 -5 1 -9 -4 -9 -6 0 -11 -5 -11 -11 0 -8 4 -8 13 -1 6 5 25 10 40 10 25 0 72 17 87 32 3 3 25 16 50 29 25 13 70 39 100 56 30 18 145 86 255 150 110 65 213 126 230 136 29 17 29 20 30 101 1 97 21 149 84 214 43 43 130 94 163 94 10 0 16 5 13 10 -4 6 -10 8 -14 6 -13 -8 -34 11 -26 24 5 9 31 11 89 8 65 -3 93 -10 140 -34z m711 -1134 c248 -142 499 -286 559 -321 l109 -63 46 25 c25 14 169 96 319 182 150 86 274 157 276 157 12 0 1188 -686 1209 -704 9 -9 18 -15 20 -15 1 1 22 -9 46 -22 24 -13 52 -28 62 -34 11 -5 19 -15 19 -22 0 -7 5 -13 11 -13 5 0 7 5 3 12 -4 7 -3 8 5 4 9 -6 9 -11 0 -22 -14 -17 2 -19 19 -2 9 9 12 9 12 0 0 -6 -8 -16 -17 -22 -16 -9 -15 -10 5 -5 13 4 22 2 22 -4 0 -6 -5 -11 -12 -11 -16 0 -3 -11 17 -14 9 -1 20 -7 23 -13 12 -17 52 -34 65 -27 6 4 9 4 5 -1 -9 -9 17 -28 157 -112 154 -93 141 -88 183 -60 54 35 97 47 168 47 61 0 102 -10 127 -30 6 -5 23 -19 37 -31 21 -16 21 -18 4 -10 -19 9 -36 -4 -158 -125 -75 -75 -136 -139 -136 -142 0 -3 -18 -23 -40 -43 -22 -21 -40 -45 -40 -53 0 -9 -7 -16 -16 -16 -11 0 -14 -5 -9 -17 4 -10 10 -26 12 -35 5 -17 94 -78 114 -78 5 0 7 -5 3 -11 -4 -8 1 -9 17 -4 19 5 21 4 9 -4 -12 -9 -11 -11 8 -11 13 0 22 -6 22 -16 0 -9 5 -12 12 -8 6 4 8 3 5 -3 -8 -13 -90 3 -95 17 -2 5 -9 7 -15 5 -18 -7 -109 64 -101 77 4 7 3 8 -4 4 -16 -9 -67 64 -87 125 -9 27 -18 74 -18 104 -1 35 -6 55 -14 55 -6 0 -18 6 -25 13 -7 6 -30 20 -51 30 -24 10 -35 22 -31 29 4 7 3 8 -5 4 -11 -7 -118 52 -626 344 -687 396 -911 523 -920 523 -19 0 -335 -187 -327 -194 4 -4 318 -187 697 -407 889 -515 919 -532 927 -540 4 -4 8 -177 8 -384 l1 -377 82 -47 c45 -26 208 -122 362 -212 154 -91 330 -194 391 -230 l111 -64 6 -411 c4 -227 7 -527 7 -667 l0 -255 35 -19 c44 -24 107 -91 133 -143 90 -177 16 -396 -166 -485 -61 -30 -75 -33 -157 -33 -79 0 -97 4 -145 28 -260 132 -280 476 -37 633 l37 24 -2 577 -3 577 -320 187 c-176 102 -322 183 -325 179 -3 -5 -7 -431 -9 -949 -2 -517 -7 -955 -11 -973 -7 -29 -8 -30 -9 -7 -1 14 -8 34 -16 45 -13 17 -14 -34 -15 -441 l0 -460 46 -24 c123 -66 186 -220 146 -357 -16 -54 -77 -137 -123 -166 -30 -19 -36 -28 -32 -50 4 -24 0 -28 -39 -39 -66 -17 -185 -7 -244 21 -151 73 -235 257 -190 414 20 67 75 158 93 151 7 -2 15 1 19 7 5 7 2 8 -7 3 -12 -8 -12 -6 0 8 7 9 19 17 25 17 6 0 4 -5 -4 -10 -14 -9 -7 -15 14 -11 5 1 3 -6 -5 -16 -13 -17 -13 -17 11 0 14 10 42 26 62 35 l38 17 0 615 c0 401 -4 610 -10 600 -7 -11 -10 -7 -10 18 0 18 -4 31 -9 28 -9 -6 -24 40 -20 60 1 5 1 549 0 1210 l-1 1201 -182 105 c-390 225 -1405 813 -1643 951 l-250 146 -95 -51 c-52 -28 -115 -64 -140 -79 -31 -19 -48 -25 -56 -18 -8 6 -14 6 -18 0 -3 -5 -1 -11 6 -13 7 -3 5 -7 -6 -11 -10 -4 -15 -3 -11 3 3 6 0 10 -7 11 -10 0 -10 2 0 6 6 2 9 10 6 15 -4 6 -2 8 4 4 6 -3 13 -2 17 4 12 19 -20 9 -85 -25 -36 -19 -89 -47 -117 -62 -29 -15 -53 -31 -53 -35 0 -4 32 -28 71 -53 39 -25 70 -48 68 -49 -2 -2 -22 -13 -44 -25 -22 -11 -34 -21 -27 -21 6 0 -2 -13 -20 -30 -17 -16 -33 -30 -34 -30 -2 0 -44 23 -94 50 -50 28 -94 50 -99 50 -10 0 -186 -102 -246 -143 -35 -24 -36 -26 -17 -36 11 -6 22 -8 26 -6 3 3 2 -1 -4 -7 -8 -9 -13 -9 -22 0 -7 7 -19 12 -27 12 -11 0 -10 -4 5 -14 19 -15 19 -15 -1 -30 -28 -21 -802 -471 -1145 -666 -157 -89 -300 -171 -318 -181 -19 -11 -38 -16 -44 -13 -6 4 -8 2 -5 -3 4 -6 0 -14 -9 -17 -25 -9 -41 -7 -24 4 13 9 13 10 0 10 -13 0 -13 1 0 11 12 9 11 10 -5 6 -11 -3 -28 -8 -37 -12 -16 -6 -18 -1 -18 48 0 31 -4 59 -10 62 -5 3 -10 0 -11 -7 -3 -34 -15 42 -14 91 0 52 2 55 36 75 20 12 206 121 415 242 524 306 981 565 1021 579 18 6 30 15 26 19 -4 4 1 4 11 0 15 -6 17 -4 11 7 -4 8 -5 11 0 7 4 -4 15 -2 24 5 14 10 14 10 4 -4 -7 -9 -9 -20 -5 -24 4 -5 2 -5 -4 -2 -6 4 -19 0 -29 -7 -14 -10 -15 -15 -5 -21 9 -6 11 -4 5 5 -6 10 -4 12 8 7 10 -4 35 4 60 17 23 13 66 37 96 53 29 16 53 33 53 37 -1 17 -406 239 -441 242 l-35 3 43 -25 c47 -26 55 -29 46 -14 -3 6 -1 10 4 10 15 0 14 -15 -2 -29 -10 -8 -18 -6 -33 7 -10 10 -23 20 -29 21 -5 2 -28 13 -51 24 l-41 20 -184 -110 c-228 -137 -686 -402 -705 -410 -12 -4 -14 21 -12 167 l3 173 235 134 c519 296 560 318 582 304 16 -10 26 -10 49 -1 16 7 26 17 22 23 -3 6 -1 7 6 3 11 -7 185 89 501 276 90 54 161 98 156 98 -4 0 -16 -5 -26 -10 -16 -8 -18 -8 -14 5 4 9 1 15 -7 15 -8 0 18 20 56 44 57 35 74 42 90 33 11 -5 223 -126 470 -267z m208 -973 c4 3 7 2 7 -3 0 -6 16 -16 35 -23 19 -7 35 -16 35 -21 0 -4 11 -11 25 -14 16 -4 23 -11 19 -18 -4 -7 -3 -8 5 -4 10 7 286 -148 1276 -717 l270 -156 3 -633 c3 -678 -3 -921 -22 -878 -6 14 -13 27 -17 30 -3 3 -10 115 -13 250 -4 135 -10 254 -12 266 -5 19 -34 30 -34 13 0 -5 -29 -38 -64 -75 -62 -64 -76 -92 -76 -150 0 -13 -4 -24 -10 -24 -5 0 -10 9 -10 20 0 11 -7 20 -15 20 -13 0 -15 61 -15 490 l0 490 -37 23 c-21 13 -128 76 -238 139 -294 170 -431 249 -515 300 -41 24 -101 59 -132 77 -32 18 -58 37 -58 42 0 6 -4 8 -9 4 -6 -3 -20 5 -33 19 -13 13 -36 27 -53 31 -18 4 -24 10 -16 13 9 3 4 9 -15 18 -18 7 -23 13 -12 13 9 1 19 5 22 10 4 5 -2 7 -13 4 -10 -3 -22 0 -25 6 -4 6 0 11 11 11 21 0 116 88 108 100 -3 5 7 10 22 12 24 3 19 8 -52 54 -44 28 -127 80 -185 115 -130 78 -170 108 -167 122 1 7 -10 12 -24 11 -23 0 -25 2 -16 18 10 15 13 15 27 3 9 -8 20 -12 23 -8z m-3555 -205 c-23 -4 -24 -26 -17 -237 4 -99 7 -265 8 -370 1 -239 12 -426 22 -400 6 15 8 12 8 -15 1 -20 6 -41 12 -47 8 -8 11 -385 11 -1313 -1 -716 -3 -1304 -5 -1306 -2 -2 -11 2 -21 9 -17 12 -22 154 -37 1067 0 56 -2 61 -11 37 -5 -15 -14 -25 -19 -21 -5 3 -9 -4 -9 -16 0 -11 -6 -20 -12 -19 -26 3 -38 -1 -38 -14 0 -7 -15 -28 -32 -47 -31 -33 -33 -40 -36 -123 -5 -102 -12 -111 -69 -77 -20 12 -45 19 -55 17 -20 -6 -25 8 -5 16 6 3 1 6 -12 6 -13 1 -21 -2 -18 -5 12 -12 -47 -104 -63 -99 -18 5 -47 -11 -37 -21 3 -4 14 -1 22 6 14 12 15 10 10 -13 -6 -21 -4 -27 9 -27 25 0 67 -31 59 -44 -3 -6 -3 -8 2 -4 8 8 115 -43 132 -64 12 -14 6 -271 -7 -263 -8 5 -30 125 -33 185 -2 45 -2 45 -82 93 -44 27 -79 54 -79 62 1 8 -4 11 -14 8 -10 -4 -13 -2 -8 5 7 12 -38 62 -56 62 -5 0 -7 4 -4 9 3 4 -6 13 -19 19 -13 6 -107 60 -207 120 -101 60 -237 141 -304 180 l-121 71 -6 53 c-4 29 -7 161 -7 293 0 213 -2 243 -18 265 -17 24 -24 172 -31 600 l-2 85 -45 29 c-141 89 -200 289 -131 441 36 78 104 146 181 182 52 24 73 28 146 28 98 -1 169 -27 237 -89 172 -155 144 -457 -53 -572 l-44 -26 -1 -516 c-1 -285 -4 -507 -6 -494 -2 12 -8 22 -13 22 -5 0 -11 10 -13 23 -4 19 -6 -14 -11 -178 -1 -38 1 -41 49 -67 28 -14 55 -31 61 -36 8 -7 18 -6 32 4 18 12 22 12 36 -2 9 -8 21 -12 28 -8 9 6 9 3 -1 -9 -7 -9 -18 -17 -24 -17 -6 0 -7 3 -4 7 4 3 2 12 -4 20 -9 10 -15 11 -26 2 -11 -10 -6 -16 28 -36 23 -13 44 -21 48 -18 3 3 0 9 -6 13 -8 5 -7 10 2 19 10 9 21 6 48 -13 20 -13 40 -24 44 -24 19 -1 113 -67 106 -75 -5 -4 -3 -5 3 -2 10 6 122 -52 234 -121 19 -12 40 -22 45 -22 7 0 10 355 11 1043 0 573 4 1060 9 1082 l8 40 12 -35 c11 -33 12 -29 18 70 4 58 10 185 13 282 4 98 11 175 15 172 5 -3 9 1 9 10 0 20 57 76 83 80 12 2 21 9 19 16 -2 7 3 17 10 22 10 8 10 11 0 15 -18 7 -4 23 15 16 10 -4 14 -2 10 4 -5 7 1 9 15 5 18 -5 19 -7 6 -10z m3342 -1477 l0 -1025 -175 0 -175 0 0 1025 0 1025 175 0 175 0 0 -1025z m1834 -1855 c6 -300 15 -398 35 -385 16 9 21 -219 21 -864 0 -614 -1 -657 -17 -667 -21 -13 -453 -264 -651 -378 -73 -42 -138 -73 -144 -70 -7 4 -8 2 -4 -4 9 -15 1 -15 -25 -1 -11 5 -17 14 -14 19 3 5 -32 -12 -77 -37 -190 -104 -598 -350 -598 -359 0 -3 4 -2 10 1 5 3 17 2 27 -3 14 -9 14 -10 -6 -17 -11 -3 -19 -10 -17 -14 3 -4 -23 -24 -58 -44 l-63 -37 -5 -78 c-8 -139 -79 -247 -203 -307 -52 -26 -70 -29 -144 -28 -98 0 -154 17 -216 65 -217 167 -183 501 63 616 49 23 70 27 147 27 73 0 100 -5 143 -24 60 -27 57 -28 169 38 31 19 54 27 58 21 4 -6 3 -10 -2 -9 -27 5 -35 -1 -23 -16 7 -8 16 -15 20 -15 12 0 220 118 431 244 122 73 185 116 179 122 -6 6 0 10 18 9 21 0 27 5 28 23 1 18 -3 21 -20 16 -30 -8 76 57 412 255 l292 173 0 869 c0 478 4 869 8 869 4 0 14 -15 22 -32 13 -31 14 -25 22 107 5 77 12 165 15 195 6 53 7 54 14 20 l6 -35 2 38 c0 22 5 36 11 32 10 -6 33 14 65 58 11 15 25 27 32 27 7 0 14 6 14 13 6 56 18 -166 23 -433z m-412 -112 c-18 -18 -14 -30 6 -19 14 7 18 6 18 -9 0 -10 -4 -16 -8 -14 -4 3 -8 0 -8 -5 0 -6 5 -11 10 -11 6 0 10 -48 10 -123 l0 -123 -202 -119 c-211 -124 -553 -320 -648 -372 -30 -16 -72 -40 -93 -52 -21 -12 -43 -18 -49 -15 -6 4 -8 3 -5 -3 7 -12 -61 -49 -70 -39 -4 3 0 6 7 6 12 0 12 2 1 13 -11 10 -14 9 -18 -1 -3 -6 -9 -9 -15 -6 -5 3 16 21 46 40 31 19 62 38 69 44 14 12 419 254 517 309 36 20 134 77 217 126 121 71 151 94 147 108 -3 9 -1 17 5 17 6 0 11 -6 12 -12 0 -7 5 0 9 15 12 40 24 177 15 177 -4 0 -66 -35 -139 -79 -176 -105 -495 -288 -751 -431 -256 -142 -255 -142 -255 -136 0 3 12 12 28 20 26 15 26 15 3 13 -44 -4 -31 18 32 54 34 20 152 89 262 154 313 184 838 482 855 484 2 1 -1 -4 -8 -11z m-4649 -366 c-6 -14 -4 -15 8 -5 12 10 20 9 40 -4 13 -9 26 -20 29 -23 3 -3 20 -12 37 -19 18 -7 30 -17 28 -22 -3 -4 3 -7 12 -7 16 1 334 -179 1193 -674 129 -75 329 -190 445 -257 115 -67 217 -121 225 -121 9 0 20 4 26 9 23 22 361 204 377 203 10 0 15 4 11 10 -4 7 -2 8 4 4 31 -19 -20 -62 -204 -173 -104 -63 -199 -116 -211 -119 -15 -4 -41 6 -80 29 -63 37 -177 100 -235 130 -29 14 -41 16 -55 7 -16 -9 -15 -10 7 -5 23 5 23 5 5 -6 -33 -21 -104 -102 -98 -112 3 -5 -4 -6 -18 -2 -18 5 -20 4 -9 -4 8 -6 25 -8 37 -5 15 4 41 -7 83 -35 34 -23 63 -41 65 -41 2 0 73 -41 157 -91 156 -93 765 -442 827 -474 32 -16 37 -16 68 -1 18 9 33 20 33 25 0 18 44 57 85 76 35 16 37 19 20 26 -19 8 -19 8 2 15 13 3 21 10 18 14 -3 5 0 12 6 16 7 4 9 3 5 -4 -3 -6 -2 -13 4 -17 6 -4 10 5 10 20 0 16 4 24 11 20 10 -7 40 25 34 36 -2 3 16 27 40 54 25 27 45 52 45 57 0 4 4 8 9 8 11 0 151 139 151 150 0 4 11 11 25 14 13 3 37 23 52 44 15 20 32 39 36 40 4 2 2 11 -5 20 -11 13 -10 15 10 9 23 -5 23 -5 6 14 -15 16 -6 14 46 -10 56 -27 67 -29 85 -17 11 7 65 39 120 71 104 61 315 195 315 201 0 4 -38 -4 -50 -11 -25 -16 -6 17 23 38 34 27 434 263 462 273 15 6 16 -9 14 -161 l-2 -167 -36 -22 c-71 -45 -276 -158 -294 -161 -14 -3 -15 0 -7 14 24 45 -46 12 -430 -206 -232 -132 -320 -183 -555 -321 -27 -16 -61 -39 -75 -50 -22 -18 -23 -22 -10 -37 10 -12 11 -20 4 -22 -6 -2 -26 -15 -44 -28 -18 -13 -37 -22 -41 -19 -5 3 -9 1 -9 -4 0 -5 -32 -28 -71 -50 l-71 -42 -306 177 c-169 97 -397 228 -507 292 -110 63 -233 134 -273 157 l-73 42 -217 -125 c-119 -68 -242 -136 -272 -150 -30 -14 -63 -30 -73 -35 -25 -13 -33 -3 -14 16 9 10 23 13 33 9 16 -6 17 -5 4 9 -13 14 -18 14 -50 -3 -19 -11 -41 -19 -48 -19 -8 0 -71 33 -141 74 -69 41 -207 121 -306 179 -400 232 -659 387 -709 423 l-21 16 24 -7 c17 -5 22 -4 16 5 -6 10 0 12 25 6 33 -6 33 -6 12 12 l-20 18 29 13 c16 7 29 19 29 27 0 35 67 8 295 -121 66 -38 181 -102 255 -143 74 -41 164 -91 200 -112 117 -68 135 -77 148 -73 6 3 10 9 7 13 -3 5 4 8 16 7 20 -1 21 -2 1 -17 -19 -16 -19 -17 12 -37 21 -13 37 -17 51 -12 18 7 18 8 1 8 -12 1 -16 6 -12 17 3 8 2 12 -4 9 -6 -3 -10 0 -11 7 0 10 -2 10 -6 1 -2 -7 -12 -13 -21 -13 -15 1 -15 2 2 15 16 12 22 12 47 -1 16 -8 29 -18 29 -23 0 -5 12 -11 28 -14 37 -8 369 181 350 198 -7 7 -78 49 -158 95 -161 93 -532 309 -579 338 -17 10 -28 22 -23 27 4 5 1 5 -6 1 -9 -5 -28 3 -52 23 -21 17 -44 32 -51 33 -7 2 -21 11 -31 21 -10 10 -24 15 -30 11 -7 -4 -8 -3 -4 4 4 8 0 12 -11 12 -10 0 -25 5 -33 10 -11 8 -7 9 15 5 l30 -5 -34 16 c-18 8 -40 13 -48 10 -8 -3 -11 -1 -8 4 3 6 0 10 -7 10 -7 1 1 8 17 17 17 9 25 18 18 20 -7 3 -13 11 -13 19 0 9 5 12 10 9 16 -10 11 7 -6 19 -13 10 -11 12 10 14 14 1 35 11 46 22 11 11 25 20 30 20 6 0 10 5 10 11 0 5 -5 7 -12 3 -7 -5 -9 -2 -5 9 6 16 -47 62 -118 101 -16 9 -50 30 -75 46 -25 16 -60 37 -78 46 -34 17 -64 52 -57 65 3 4 -7 6 -23 5 -15 0 -28 3 -29 8 -1 5 -7 13 -15 18 -10 8 -10 9 2 5 8 -2 14 -11 12 -18 -2 -8 0 -10 5 -6 4 5 9 13 9 18 3 19 4 20 14 14 5 -3 6 -13 3 -23z"/>
<path d="M3532 8216 c-12 -6 -20 -16 -18 -22 3 -8 -3 -10 -16 -6 -16 4 -19 2 -13 -8 5 -9 4 -11 -4 -6 -7 5 -28 -3 -49 -17 -20 -13 -55 -34 -77 -47 -22 -12 -58 -33 -80 -46 -22 -12 -121 -69 -220 -126 l-180 -104 -2 -174 c-3 -173 -2 -175 16 -152 11 12 22 22 25 22 11 0 46 40 46 53 0 8 3 7 10 -3 7 -12 11 -10 18 10 5 14 12 34 15 45 4 17 5 16 6 -5 2 -42 21 -1 21 47 0 40 19 73 41 73 6 0 7 5 3 12 -5 7 -3 8 5 3 8 -4 30 5 56 24 24 17 48 31 54 31 6 0 18 14 26 30 15 28 61 57 73 46 3 -3 -7 -10 -22 -15 -14 -6 -26 -13 -26 -15 0 -7 31 5 55 21 18 12 17 13 -13 19 -18 4 -32 11 -32 16 0 6 7 7 15 4 8 -3 22 -9 32 -13 11 -4 14 -3 9 6 -5 7 6 25 27 45 28 26 33 36 24 46 -10 10 -8 10 10 1 28 -14 33 -14 27 3 -3 7 6 23 20 34 14 11 26 23 26 27 0 13 87 95 101 95 11 0 11 2 1 9 -18 11 7 32 43 35 14 2 29 6 32 10 11 10 -61 4 -85 -8z"/>
<path d="M6900 7927 c-41 -24 -182 -105 -313 -180 -130 -75 -242 -137 -248 -137 -11 0 -104 48 -204 106 -136 79 -141 79 -174 10 -11 -25 -24 -46 -27 -46 -3 0 -2 5 1 10 3 6 1 10 -6 10 -6 0 -9 -8 -7 -18 4 -12 -1 -18 -14 -19 -22 -2 -72 -32 -65 -39 2 -3 18 3 34 13 l30 17 149 -89 c82 -48 172 -102 199 -118 28 -17 135 -77 238 -133 177 -97 189 -102 207 -87 10 9 17 20 14 25 -3 4 1 8 8 8 8 0 22 9 31 21 18 20 18 21 -2 14 -10 -3 -22 -1 -26 4 -4 7 1 8 11 4 12 -4 15 -3 10 5 -9 15 -1 15 27 1 l22 -12 -20 24 -20 23 28 -17 c15 -10 27 -15 27 -12 0 7 -58 45 -205 130 -46 28 -85 53 -85 57 0 5 152 95 431 256 26 14 30 13 97 -26 86 -49 114 -59 106 -39 -3 8 6 23 20 35 15 11 26 30 26 43 0 19 2 21 10 9 7 -10 12 -12 18 -4 4 6 13 13 21 15 10 4 -257 179 -271 179 -2 0 -37 -20 -78 -43z"/>
<path d="M8201 5958 c-1 -31 -10 -35 -30 -15 -11 10 -13 9 -7 -6 4 -14 -6 -30 -39 -60 -25 -24 -45 -49 -46 -57 -1 -8 -4 -4 -8 10 -11 37 -24 -521 -20 -880 2 -173 8 -321 12 -327 9 -14 40 13 63 53 7 10 19 18 28 18 9 -1 20 12 28 32 6 18 15 31 19 29 15 -10 19 84 19 427 0 196 3 359 8 361 4 3 72 -34 152 -81 219 -128 341 -194 347 -188 4 3 0 6 -7 6 -8 0 3 18 25 40 21 22 40 48 41 57 2 10 8 19 14 21 14 5 -111 84 -371 234 l-209 121 -1 76 c0 77 -15 185 -18 129z"/>
<path d="M1201 6220 c-25 -5 -69 -26 -98 -45 -154 -103 -178 -307 -51 -441 28 -30 54 -51 58 -49 5 3 10 1 12 -4 5 -15 51 -22 68 -12 8 6 11 14 6 18 -5 4 -11 2 -13 -4 -3 -7 -12 -13 -21 -12 -11 0 -12 2 -4 6 6 2 12 11 12 20 0 16 56 73 72 73 12 0 38 26 38 38 0 5 18 28 39 51 21 23 42 48 45 56 3 8 10 15 15 15 13 0 61 48 61 60 0 5 6 13 14 17 7 4 26 22 40 40 30 36 29 37 -37 105 -59 60 -161 87 -256 68z"/>
</g>
</svg>
